<svg width="17" height="13" viewBox="0 0 17 13" fill="none" xmlns="http://www.w3.org/2000/svg">
<path d="M16.5 10.4999C16.5 10.8507 16.4013 11.1759 16.2433 11.462L11.1914 5.80966L16.1885 1.43765C16.3829 1.74614 16.5 2.10851 16.5 2.50009V10.4999ZM8.50002 6.83595L15.4533 0.751998C15.168 0.595793 14.8467 0.5 14.5001 0.5H2.49999C2.15296 0.5 1.83155 0.595793 1.54736 0.751998L8.50002 6.83595ZM10.4385 6.46788L8.82905 7.87705C8.73491 7.95906 8.61768 8.00002 8.50002 8.00002C8.3823 8.00002 8.26507 7.95906 8.17093 7.87705L6.56107 6.46782L1.4453 12.1924C1.75194 12.3848 2.11131 12.5 2.49996 12.5H14.5001C14.8886 12.5 15.2482 12.3848 15.5547 12.1924L10.4385 6.46788ZM0.811551 1.43762C0.617194 1.74611 0.5 2.10847 0.5 2.50009V10.5C0.5 10.8507 0.598201 11.1759 0.756845 11.462L5.80811 5.8087L0.811551 1.43762Z" fill="#929AA2"/>
</svg>
