<svg width="15" height="15" viewBox="0 0 15 15" fill="none" xmlns="http://www.w3.org/2000/svg">
<path d="M12.274 9.258C11.768 8.75849 11.1364 8.75849 10.6336 9.258C10.2501 9.63828 9.86662 10.0186 9.48957 10.4053C9.38645 10.5116 9.29943 10.5342 9.17375 10.4633C8.9256 10.3279 8.66135 10.2184 8.42287 10.0701C7.31105 9.37079 6.3797 8.47167 5.5547 7.45975C5.14542 6.95702 4.78126 6.41883 4.52666 5.81297C4.4751 5.69051 4.48477 5.60994 4.58467 5.51004C4.96817 5.13943 5.342 4.75916 5.71905 4.37888C6.24435 3.85037 6.24435 3.23161 5.71583 2.69987C5.41612 2.39694 5.11641 2.10046 4.8167 1.79753C4.50733 1.48815 4.20118 1.17555 3.88858 0.869399C3.38262 0.376331 2.75098 0.376331 2.24824 0.872622C1.86152 1.2529 1.49091 1.64284 1.09775 2.01667C0.733587 2.36149 0.549895 2.78366 0.511223 3.27673C0.449993 4.07918 0.646575 4.8365 0.923725 5.57449C1.49091 7.10204 2.35459 8.45878 3.40195 9.70273C4.8167 11.385 6.50538 12.7159 8.48088 13.6763C9.37033 14.1081 10.292 14.4401 11.2943 14.4948C11.9839 14.5335 12.5833 14.3595 13.0635 13.8213C13.3922 13.4539 13.7628 13.1188 14.1109 12.7675C14.6265 12.2454 14.6297 11.6138 14.1173 11.0981C13.505 10.4826 12.8895 9.87031 12.274 9.258Z" fill="#929AA2"/>
</svg>
