<?xml version="1.0" encoding="utf-8"?>
<!-- Generator: Adobe Illustrator 24.2.0, SVG Export Plug-In . SVG Version: 6.00 Build 0)  -->
<svg version="1.1" id="Layer_1" xmlns="http://www.w3.org/2000/svg" xmlns:xlink="http://www.w3.org/1999/xlink" x="0px" y="0px"
	 viewBox="0 0 1000 1000" style="enable-background:new 0 0 1000 1000;" xml:space="preserve">
<style type="text/css">
	.st0{fill:#D8A71D;}
	.st1{fill:#DBBF53;}
	.st2{clip-path:url(#SVGID_2_);fill:url(#SVGID_3_);}
	.st3{clip-path:url(#SVGID_5_);fill:url(#SVGID_6_);}
	.st4{clip-path:url(#SVGID_8_);fill:url(#SVGID_9_);}
	.st5{clip-path:url(#SVGID_11_);fill:#EACA63;}
	.st6{clip-path:url(#SVGID_13_);fill:#EACA63;}
	.st7{clip-path:url(#SVGID_15_);fill:#D8A71D;}
	.st8{clip-path:url(#SVGID_17_);fill:#D8A71D;}
	.st9{clip-path:url(#SVGID_19_);fill:#D8A71D;}
	.st10{clip-path:url(#SVGID_21_);fill:#D8A71D;}
	.st11{clip-path:url(#SVGID_23_);fill:#D8A71D;}
	.st12{clip-path:url(#SVGID_25_);fill:#DBBF53;}
	.st13{fill-rule:evenodd;clip-rule:evenodd;fill:#FFFFFF;}
	.st14{fill:#DB7700;}
</style>
<g>
	<g>
		<g>
			<g>
				<polygon class="st0" points="600.8,-318.4 562.8,-318.4 560,-400.1 548.3,-318.4 540.2,-318.4 539.6,-357.1 533.8,-318.4 
					528.1,-318.4 523,-344.8 515.4,-318.4 458.2,-318.4 452.5,-367.8 441.1,-318.4 381.9,-318.4 379.8,-376.8 369.8,-318.4 
					364.2,-318.4 363.4,-349.2 358,-318.4 331.1,-318.4 381.2,-482.2 575.9,-482.2 				"/>
				<path class="st1" d="M578.5-493.5l-198.2,0.1c0,0,35.1-41.7,82.7-41.7l38.7,0C549.4-535.2,578.5-493.5,578.5-493.5z"/>
				<path class="st1" d="M633.6-860.7c-38.9,23.7-28.3,68-97.4,65.2c0,0,10.2-30.7,39.5-38.5c0,0-41.1-0.5-67.8,65l-16.6,233.9
					l-17.8,0l12.1-167C474.6-743.7,448.8-744,448-744c18.1,5,21.8,24.8,21.8,24.8c-44.6,1.9-33.8-26.7-56.6-42
					c52.5-16.3,71.1,8.7,74.2,33.6l7.9-109c0.3-4.7,4.5-8.5,9.3-8.5c2.4,0,4.5,0.9,6,2.5c1.5,1.6,2.3,3.7,2.1,6l-2,28.1
					C521-847.1,555.3-885.7,633.6-860.7z"/>
			</g>
			<path class="st0" d="M401.1-627.8L401.1-627.8c4.3,17.5,18,31.2,35.5,35.5h0h0c-17.5,4.3-31.2,18-35.5,35.5l0,0l0,0
				c-4.3-17.5-18-31.2-35.5-35.5h0h0C383.1-596.6,396.8-610.3,401.1-627.8L401.1-627.8z"/>
		</g>
	</g>
	<g>
		<path class="st1" d="M158.4-173.7l23.6-40.8l-22-39.3h24.3l14.9,29.8h3.9l14.9-29.8h24.3l-22,39.3l23.6,40.8h-24.3l-16.5-31.4
			h-3.9l-16.5,31.4H158.4z"/>
		<path class="st1" d="M257.3-183.7c-8.4-8.2-12.6-18.2-12.6-30.1c0-11.8,4.2-21.9,12.6-30.1c8.4-8.2,18.8-12.3,31.4-12.3
			c12.5,0,22.9,4.1,31.3,12.3c8.4,8.2,12.6,18.2,12.6,30.1c0,11.8-4.2,21.9-12.6,30.1c-8.4,8.2-18.9,12.3-31.3,12.3
			C276.2-171.3,265.7-175.4,257.3-183.7z M273.7-230.7c-4.1,4.4-6.1,10.1-6.1,17s2,12.6,6.1,17s9.1,6.6,15.1,6.6s11-2.2,15.1-6.6
			c4.1-4.4,6.1-10.1,6.1-17s-2-12.6-6.1-17c-4.1-4.4-9.1-6.6-15.1-6.6S277.8-235.1,273.7-230.7z"/>
		<path class="st1" d="M340.6-173.7v-18.8l40.1-40.8v-1.6h-38.5v-18.8h67.5v18.8l-40.1,40.8v1.6h41.6v18.8H340.6z"/>
		<path class="st1" d="M417.5-234.9v-18.8h10.2v-17.3h22v17.3h22.6v18.8h-22.6v42.4h23.6v18.8h-45.5v-61.3H417.5z"/>
		<path class="st1" d="M493.6-183.7c-8.3-8.2-12.5-18.2-12.5-30.1c0-11.8,4.2-21.9,12.5-30.1c8.3-8.2,18.6-12.3,30.7-12.3
			c12.4,0,22.5,4.1,30.5,12.3c8,8.2,11.9,18.2,11.9,30.2v4.7h-62.8c0.8,5.2,3.2,9.7,7.1,13.4c3.9,3.7,8.3,5.5,13.4,5.5
			c5.5,0,10.3-1.6,14.3-4.7c1.6-1.4,2.8-2.9,3.8-4.7H566c-1.8,5.3-4.4,10.1-7.9,14.1c-8.4,9.4-19.6,14.1-33.8,14.1
			C512.2-171.3,502-175.4,493.6-183.7z M504.7-222.4h38.5c-0.8-4.2-3-7.7-6.4-10.6c-3.4-2.9-7.6-4.3-12.5-4.3
			c-4.9,0-9.1,1.4-12.6,4.2C508.3-230.2,506-226.7,504.7-222.4z"/>
		<path class="st1" d="M568.3-173.7l23.6-40.8l-22-39.3h24.3l14.9,29.8h3.9l14.9-29.8h24.3l-22,39.3l23.6,40.8h-24.3l-16.5-31.4
			h-3.9l-16.5,31.4H568.3z"/>
		<path class="st1" d="M663-174.9c-2.4-2.4-3.6-5.4-3.6-9c0-3.6,1.2-6.5,3.6-9c2.4-2.4,5.4-3.6,9-3.6c3.6,0,6.5,1.2,9,3.6
			c2.4,2.4,3.6,5.4,3.6,9c0,3.6-1.2,6.5-3.6,9c-2.4,2.4-5.4,3.6-9,3.6C668.4-171.3,665.4-172.5,663-174.9z"/>
		<path class="st1" d="M698.7-173.7v-80.1h22v11.8h0.8c0.9-2.5,2.4-4.7,4.2-6.6c4.3-4.5,9.7-6.8,16.2-6.8h9.4v21.2h-11.8
			c-6,0-10.6,1.6-13.9,4.8c-3.3,3.2-4.9,7.6-4.9,13.3v42.4H698.7z"/>
		<path class="st1" d="M762.3-205.1v-48.7h22v45.5c0,5.9,1.4,10.3,4.3,13.4c2.9,3.1,6.9,4.6,12.2,4.6c5.2,0,9.7-2,13.4-6
			c3.7-4,5.5-9.1,5.5-15.2v-42.4h22v80.1h-22v-11h-0.8c-1.3,2.4-3.2,4.7-5.8,6.8c-5.7,4.4-12.1,6.6-19.3,6.6
			c-9.9,0-17.7-2.9-23.2-8.6C765-185.7,762.3-194.1,762.3-205.1z"/>
	</g>
</g>
<g>
	<g>
		<g>
			<g>
				<defs>
					<path id="SVGID_1_" d="M1527.6-366.7l0.5-0.7l0.5-0.7l0.5-0.7l0,0l0.5-0.6l0.5-0.7l1.5-2l0.5-0.7l1-1.4l0.5-0.7l0.5-0.7
						l0.5-0.7l0.5-0.7l0.5-0.7l0.3-0.5l0.1-0.2l0.5-0.7l0.5-0.7l0.5-0.7l0.5-0.7l0.5-0.7l0.5-0.7l0.5-0.7l0.5-0.7l0.5-0.7l0.4-0.7
						l0,0l0.4-0.7l0.4-0.7l0.4-0.7l0.4-0.7l0.4-0.7l0.4-0.7l0.9-1.4l0.4-0.7l0.9-1.4l0.4-0.7l2.1-3.7l0-0.1l0.1-0.1l0.1-0.1l0.1-0.1
						l0.1-0.1l0.1-0.1l0.1-0.1l0.1-0.1l0.1-0.1l0.1-0.1l0.1-0.1l0.1-0.1l0.1-0.1l0.1-0.1l0.1-0.1l0.1-0.2l0.1-0.1l0,0l0.1-0.2
						l0.1-0.1l0.1-0.1l0.1-0.1l0.1-0.1l0.1-0.1l0.1-0.1l0.1-0.2l0.4-0.7l0.4-0.7l0.8-1.5l0.4-0.7l0.4-0.7l0.4-0.7l0.4-0.7l0.4-0.7
						l0.4-0.7l0.3-0.6l0.1-0.1l0.4-0.7l0.7-1.5l0.4-0.8h0c17-34.5,26.6-72.5,26.6-111.3c0-2.3-0.1-4.5-0.3-6.6l2-2.2
						c14.1-15.9,14.5-36.8-0.8-49.9c8-11.3,15.1-23.3,21.6-35.5c10.5-19.9,19.3-41,26.8-62.5c62.6,59.2,69.4,157.6,13.7,224.9
						c-22.1,26.7-50.7,44.6-81.7,53.5c-9.4,12.4-25.4,28.2-36.1,35.2L1527.6-366.7z M1390.5-664.9c45.7-55.3,120-73.2,183.8-49.9
						c6.8-14.2,15.1-34.4,22.6-59.9c-1.9,21.1-5.1,43.3-9.8,65.3h0c-0.7,3.1-1.4,6.1-2.1,9.2l0,0.1l-0.4,1.6
						c-0.9,3.8-1.9,7.5-2.9,11.2l-0.1,0.3l-0.5,1.6l-0.5,1.6l0,0.1c-8.6,30.2-20.7,58.9-37.4,82.3c-18.1-6-36.3-5.7-45,17l-1.3,3.4
						c-4.2,1.8-8.6,4.2-13.3,6.9c-34.7,20-86.2,28.9-130.5,29C1349.6-587,1361.7-630.1,1390.5-664.9z"/>
				</defs>
				<clipPath id="SVGID_2_">
					<use xlink:href="#SVGID_1_"  style="overflow:visible;"/>
				</clipPath>
				
					<linearGradient id="SVGID_3_" gradientUnits="userSpaceOnUse" x1="-33.2771" y1="1036.0563" x2="-32.8914" y2="1036.0563" gradientTransform="matrix(0 -1126.8097 855.292 0 -884605.625 -37837.1172)">
					<stop  offset="0" style="stop-color:#BF7000"/>
					<stop  offset="1" style="stop-color:#EACA63"/>
				</linearGradient>
				<rect x="1349.6" y="-774.7" class="st2" width="350.8" height="408.7"/>
			</g>
			<g>
				<defs>
					<path id="SVGID_4_" d="M1574.3-714.8c6.8-14.2,15.1-34.4,22.6-59.9c-1.9,21.1-5.1,43.3-9.8,65.3h0c-0.7,3.1-1.4,6.1-2.1,9.2
						l0,0.1l-0.4,1.6c-0.9,3.8-1.9,7.5-2.9,11.2l-0.1,0.3l-0.5,1.6l-0.5,1.6l0,0.1c-8.6,30.2-20.7,58.9-37.4,82.3
						c-18.1-6-36.3-5.7-45,17l-1.3,3.4c-4.2,1.8-8.6,4.2-13.3,6.9c-34.7,20-86.2,28.9-130.5,29c-3-34.2,4.5-69.3,23.2-100
						c-8.6,15.4-17.6,52.7,21.6,52C1440.3-594.1,1544.5-637.7,1574.3-714.8"/>
				</defs>
				<clipPath id="SVGID_5_">
					<use xlink:href="#SVGID_4_"  style="overflow:visible;"/>
				</clipPath>
				
					<linearGradient id="SVGID_6_" gradientUnits="userSpaceOnUse" x1="-33.2513" y1="1035.9968" x2="-32.8653" y2="1035.9968" gradientTransform="matrix(0 -910.7546 855.2925 0 -884606.6875 -30706.9922)">
					<stop  offset="0" style="stop-color:#601111"/>
					<stop  offset="1" style="stop-color:#EACA63"/>
				</linearGradient>
				<rect x="1350.3" y="-774.7" class="st3" width="246.6" height="229.5"/>
			</g>
			<g>
				<defs>
					<path id="SVGID_7_" d="M1563.1-401.2c0,0,24.2-38.2,32.2-115.1c4.1-39.2,12.5-64.1,22.3-79.8c12.8-20.5,44.1-39.5,58.6-9
						c-7.9-27.7-23-53.5-45.2-74.5c-7.5,21.6-16.4,42.7-26.8,62.5c-6.4,12.2-13.6,24.2-21.6,35.5c15.3,13.1,14.8,34,0.8,49.9l-2,2.2
						c0.2,2.1,0.3,4.3,0.3,6.6c0,38.8-9.6,76.8-26.6,111.3h0l-0.4,0.8l-0.7,1.5l-0.4,0.7l-0.1,0.1l-0.3,0.6l-0.4,0.7l-0.4,0.7
						l-0.4,0.7l-0.4,0.7l-0.4,0.7l-0.4,0.7l-0.8,1.5l-0.4,0.7l-0.4,0.7l-0.1,0.2l-0.1,0.1l-0.1,0.1l-0.1,0.1l-0.1,0.1l-0.1,0.1
						l-0.1,0.1l-0.1,0.2l0,0l-0.1,0.1l-0.1,0.2l-0.1,0.1l-0.1,0.1l-0.1,0.1l-0.1,0.1l-0.1,0.1l-0.1,0.1l-0.1,0.1l-0.1,0.1l-0.1,0.1
						l-0.1,0.1l-0.1,0.1l-0.1,0.1l-0.1,0.1l-0.1,0.1l0,0.1l-2.1,3.7l-0.4,0.7l-0.9,1.4l-0.4,0.7l-0.9,1.4l-0.4,0.7l-0.4,0.7
						l-0.4,0.7l-0.4,0.7l-0.4,0.7l-0.4,0.7l0,0l-0.4,0.7l-0.5,0.7l-0.5,0.7l-0.5,0.7l-0.5,0.7l-0.5,0.7l-0.5,0.7l-0.5,0.7l-0.5,0.7
						l-0.5,0.7l-0.1,0.2l-0.3,0.5l-0.5,0.7l-0.5,0.7l-0.5,0.7l-0.5,0.7l-0.5,0.7l-1,1.4l-0.5,0.7l-1.5,2l-0.5,0.7l-0.5,0.6l0,0
						l-0.5,0.7l-0.5,0.7l-0.5,0.7l-0.5,0.7C1537.8-373,1553.7-388.8,1563.1-401.2"/>
				</defs>
				<clipPath id="SVGID_8_">
					<use xlink:href="#SVGID_7_"  style="overflow:visible;"/>
				</clipPath>
				
					<linearGradient id="SVGID_9_" gradientUnits="userSpaceOnUse" x1="-33.2963" y1="1036.1715" x2="-32.9646" y2="1036.1715" gradientTransform="matrix(0 -1142.059 822.3602 0 -850504.5 -38423.3398)">
					<stop  offset="0" style="stop-color:#601111"/>
					<stop  offset="1" style="stop-color:#EACA63"/>
				</linearGradient>
				<rect x="1527.1" y="-679.6" class="st4" width="149.2" height="313.6"/>
			</g>
			<g>
				<defs>
					<path id="SVGID_10_" d="M1322-535.1c50.6,5.2,122.1-2.8,167.6-29.1c15.3-8.8,22.1-11.8,34-3.8l37.5,25c7.1,4.7,9,9.6,9,20.1
						c0,28.6-5.9,95-60.6,160.1c-19.6-0.8-39.2-4.5-58-11.2c27.4-21.4,64.3-60.4,88.3-125.8c0,0-34.1,70.5-107.9,117.6
						c-14-6.8-27.4-15.3-39.9-25.7c-5.5-4.5-10.7-9.3-15.5-14.3c19.4-7.7,40.8-18.9,59.5-35.1c0,0-28.6,14-70.1,23.4
						c-13.4-16.1-24-34-31.5-52.9c25.9-0.8,64.9-6,101.6-26.2c0,0-49.1,16.3-106.5,12.3C1326-511.9,1323.5-523.4,1322-535.1"/>
				</defs>
				<clipPath id="SVGID_11_">
					<use xlink:href="#SVGID_10_"  style="overflow:visible;"/>
				</clipPath>
				<rect x="1322" y="-575.9" class="st5" width="248.1" height="213.1"/>
			</g>
			<g>
				<defs>
					<path id="SVGID_12_" d="M1388.2-535.4c36.4-3.6,73.7-12.8,101.4-28.8c15.3-8.8,22.1-11.8,34-3.8l20.9,13.9
						c-27.3-13.8-42.6-4.1-66.9,4.2C1452.9-541.3,1420.3-537.4,1388.2-535.4"/>
				</defs>
				<clipPath id="SVGID_13_">
					<use xlink:href="#SVGID_12_"  style="overflow:visible;"/>
				</clipPath>
				<rect x="1388.2" y="-575.9" class="st6" width="156.3" height="40.5"/>
			</g>
			<g>
				<defs>
					<path id="SVGID_14_" d="M1566.3-481.7c-6,32.8-20.9,76.1-56.8,118.9c-5.7-0.2-11.4-0.7-17.1-1.4
						C1517-379.2,1556.1-447,1566.3-481.7"/>
				</defs>
				<clipPath id="SVGID_15_">
					<use xlink:href="#SVGID_14_"  style="overflow:visible;"/>
				</clipPath>
				<rect x="1492.4" y="-481.7" class="st7" width="73.9" height="118.9"/>
			</g>
			<g>
				<defs>
					<path id="SVGID_16_" d="M1451.5-374c27.4-21.4,64.3-60.4,88.3-125.8c0,0-34.1,70.5-107.9,117.6c-11.8-5.7-23.1-12.6-33.8-20.8
						c54.3-23.7,99.2-72,99.2-72s-28.2,47.2-70.6,78c0,0,83.1-41.7,122.5-132.6C1549.2-529.5,1558.5-439.2,1451.5-374"/>
				</defs>
				<clipPath id="SVGID_17_">
					<use xlink:href="#SVGID_16_"  style="overflow:visible;"/>
				</clipPath>
				<rect x="1398.1" y="-529.5" class="st8" width="160.4" height="155.5"/>
			</g>
			<g>
				<defs>
					<path id="SVGID_18_" d="M1436-457.2L1436-457.2L1436-457.2c-1.8,0.9-29.9,14.3-70.1,23.4c-13.4-16.1-24-34-31.5-52.9
						c13.6,27.7,103.3-6.9,103.3-6.9s-41,25-78.4,29.3c0,0,47,32.1,137.9-42.6C1497.3-506.9,1462.6-471.3,1436-457.2"/>
				</defs>
				<clipPath id="SVGID_19_">
					<use xlink:href="#SVGID_18_"  style="overflow:visible;"/>
				</clipPath>
				<rect x="1334.5" y="-506.9" class="st9" width="162.8" height="74.7"/>
			</g>
			<g>
				<defs>
					<path id="SVGID_20_" d="M1436-512.9c0,0-49.1,16.3-106.5,12.3c-3.5-11.3-6-22.8-7.5-34.4c22.3,23.4,91.4,29.8,159.3-2.7
						C1481.3-537.8,1449.7-519.8,1436-512.9"/>
				</defs>
				<clipPath id="SVGID_21_">
					<use xlink:href="#SVGID_20_"  style="overflow:visible;"/>
				</clipPath>
				<rect x="1322" y="-537.8" class="st10" width="159.3" height="41.1"/>
			</g>
			<g>
				<defs>
					<path id="SVGID_22_" d="M1509.3-580.3c21.1,9.1,43.2,24.6,65.4,41c0,0,20.5-23.4-5.3-37.1l-3.6-1.9
						c67.5-86.7,83.3-228.9,83.3-229.3c2.7-17-37.5-25.1-38.4-1c0,0.4-0.9,142.2-63.3,221.1C1530.3-595.1,1515.8-597.3,1509.3-580.3
						"/>
				</defs>
				<clipPath id="SVGID_23_">
					<use xlink:href="#SVGID_22_"  style="overflow:visible;"/>
				</clipPath>
				<rect x="1509.3" y="-832.8" class="st11" width="142.5" height="293.4"/>
			</g>
			<g>
				<defs>
					<path id="SVGID_24_" d="M1639.1-821.5c-11.2-4.8-27.8-2.5-28.3,12.8c0,0.4-0.9,142.2-63.3,221.1
						c39.4-38.1,67.7-131.8,74.5-193.8C1625.6-814.9,1633.1-822,1639.1-821.5"/>
				</defs>
				<clipPath id="SVGID_25_">
					<use xlink:href="#SVGID_24_"  style="overflow:visible;"/>
				</clipPath>
				<rect x="1547.4" y="-826.3" class="st12" width="91.7" height="238.8"/>
			</g>
			<path class="st13" d="M1648.5-595.6c0,14.5,11.9,26.4,26.4,26.4c0.7,0,1.2,0.5,1.2,1.2c0,0.7-0.5,1.2-1.2,1.2
				c-14.5,0-26.4,11.9-26.4,26.4c0,0.7-0.5,1.2-1.2,1.2c-0.7,0-1.2-0.5-1.2-1.2c0-14.5-11.9-26.4-26.4-26.4c-0.7,0-1.2-0.5-1.2-1.2
				c0-0.7,0.5-1.2,1.2-1.2c14.5,0,26.4-11.9,26.4-26.4c0-0.7,0.5-1.2,1.2-1.2C1648-596.8,1648.5-596.3,1648.5-595.6"/>
			<path class="st13" d="M1622.7-525.2c0,9.4,7.7,17,17,17c0.4,0,0.8,0.4,0.8,0.8c0,0.4-0.4,0.8-0.8,0.8c-9.4,0-17,7.7-17,17
				c0,0.4-0.4,0.8-0.8,0.8c-0.4,0-0.8-0.3-0.8-0.8c0-9.4-7.7-17-17-17c-0.4,0-0.8-0.4-0.8-0.8c0-0.4,0.4-0.8,0.8-0.8
				c9.4,0,17-7.7,17-17c0-0.4,0.4-0.8,0.8-0.8C1622.4-525.9,1622.7-525.6,1622.7-525.2"/>
			<path class="st13" d="M1451.5-672.5c0,18.3,15,33.3,33.3,33.3c0.8,0,1.5,0.7,1.5,1.5c0,0.8-0.7,1.5-1.5,1.5
				c-18.3,0-33.3,15-33.3,33.3c0,0.8-0.7,1.5-1.5,1.5c-0.8,0-1.5-0.7-1.5-1.5c0-18.3-15-33.3-33.3-33.3c-0.8,0-1.5-0.7-1.5-1.5
				c0-0.8,0.7-1.5,1.5-1.5c18.3,0,33.3-15,33.3-33.3c0-0.8,0.7-1.5,1.5-1.5C1450.8-674,1451.5-673.4,1451.5-672.5"/>
		</g>
	</g>
	<g>
		<path class="st0" d="M1178.4-218.6l23.6-40.8l-22-39.3h24.3l14.9,29.8h3.9l14.9-29.8h24.3l-22,39.3l23.6,40.8h-24.3l-16.5-31.4
			h-3.9l-16.5,31.4H1178.4z"/>
		<path class="st0" d="M1277.3-228.5c-8.4-8.2-12.6-18.2-12.6-30.1c0-11.8,4.2-21.9,12.6-30.1c8.4-8.2,18.8-12.3,31.4-12.3
			c12.5,0,22.9,4.1,31.3,12.3c8.4,8.2,12.6,18.2,12.6,30.1c0,11.8-4.2,21.9-12.6,30.1c-8.4,8.2-18.9,12.3-31.3,12.3
			C1296.2-216.2,1285.7-220.3,1277.3-228.5z M1293.7-275.6c-4.1,4.4-6.1,10.1-6.1,17s2,12.6,6.1,17s9.1,6.6,15.1,6.6
			c6,0,11-2.2,15.1-6.6s6.1-10.1,6.1-17s-2-12.6-6.1-17c-4.1-4.4-9.1-6.6-15.1-6.6C1302.8-282.2,1297.8-280,1293.7-275.6z"/>
		<path class="st0" d="M1360.6-218.6v-18.8l40.1-40.8v-1.6h-38.5v-18.8h67.5v18.8l-40.1,40.8v1.6h41.6v18.8H1360.6z"/>
		<path class="st0" d="M1437.5-279.8v-18.8h10.2v-17.3h22v17.3h22.6v18.8h-22.6v42.4h23.6v18.8h-45.5v-61.3H1437.5z"/>
		<path class="st0" d="M1513.6-228.5c-8.3-8.2-12.5-18.2-12.5-30.1c0-11.8,4.2-21.9,12.5-30.1c8.3-8.2,18.6-12.3,30.7-12.3
			c12.4,0,22.5,4.1,30.5,12.3c8,8.2,11.9,18.2,11.9,30.2v4.7h-62.8c0.8,5.2,3.2,9.7,7.1,13.4c3.9,3.7,8.3,5.5,13.4,5.5
			c5.5,0,10.3-1.6,14.3-4.7c1.6-1.4,2.8-2.9,3.8-4.7h23.6c-1.8,5.3-4.4,10.1-7.9,14.1c-8.4,9.4-19.6,14.1-33.8,14.1
			C1532.2-216.2,1522-220.3,1513.6-228.5z M1524.7-267.2h38.5c-0.8-4.2-3-7.7-6.4-10.6c-3.4-2.9-7.6-4.3-12.5-4.3
			c-4.9,0-9.1,1.4-12.6,4.2C1528.3-275.1,1526-271.5,1524.7-267.2z"/>
		<path class="st0" d="M1588.3-218.6l23.6-40.8l-22-39.3h24.3l14.9,29.8h3.9l14.9-29.8h24.3l-22,39.3l23.6,40.8h-24.3l-16.5-31.4
			h-3.9l-16.5,31.4H1588.3z"/>
		<path class="st0" d="M1683-219.8c-2.4-2.4-3.6-5.4-3.6-9c0-3.6,1.2-6.5,3.6-9c2.4-2.4,5.4-3.6,9-3.6c3.6,0,6.5,1.2,9,3.6
			c2.4,2.4,3.6,5.4,3.6,9c0,3.6-1.2,6.5-3.6,9c-2.4,2.4-5.4,3.6-9,3.6C1688.4-216.2,1685.4-217.4,1683-219.8z"/>
		<path class="st0" d="M1718.7-218.6v-80.1h22v11.8h0.8c0.9-2.5,2.4-4.7,4.2-6.6c4.3-4.5,9.7-6.8,16.2-6.8h9.4v21.2h-11.8
			c-6,0-10.6,1.6-13.9,4.8c-3.3,3.2-4.9,7.6-4.9,13.3v42.4H1718.7z"/>
		<path class="st0" d="M1782.3-250v-48.7h22v45.5c0,5.9,1.4,10.3,4.3,13.4c2.9,3.1,6.9,4.6,12.2,4.6c5.2,0,9.7-2,13.3-6
			c3.7-4,5.5-9.1,5.5-15.2v-42.4h22v80.1h-22v-11h-0.8c-1.3,2.4-3.2,4.7-5.8,6.8c-5.7,4.4-12.1,6.6-19.3,6.6
			c-9.9,0-17.7-2.9-23.2-8.6C1785-230.6,1782.3-239,1782.3-250z"/>
	</g>
</g>
<g>
	<g>
		<polygon class="st14" points="605.9,340.2 575.1,371.1 605.9,401.9 		"/>
		<g>
			<polygon class="st0" points="605.9,340.2 513.2,433 544,463.8 605.9,401.9 			"/>
			<polygon class="st1" points="661.6,581.4 661.6,519.7 574.8,433 544,402.1 513.2,433 			"/>
		</g>
		<g>
			<polygon class="st0" points="575.1,556.5 482.3,463.8 451.5,494.6 513.4,556.5 			"/>
			<polygon class="st1" points="333.9,612.2 395.6,612.2 451.3,556.5 482.3,525.4 513.2,494.6 482.3,463.8 389.6,556.5 			"/>
		</g>
		<g>
			<polygon class="st0" points="358.8,525.7 451.5,432.9 420.7,402.1 358.8,464 			"/>
			<polygon class="st1" points="303.1,284.5 303.1,346.2 389.8,432.9 420.7,463.8 451.5,432.9 			"/>
		</g>
		<g>
			<polygon class="st0" points="389.6,309.4 482.3,402.1 513.2,371.3 451.3,309.4 			"/>
			<polygon class="st1" points="630.8,253.7 569.1,253.7 482.3,340.5 451.5,371.3 482.3,402.1 			"/>
		</g>
	</g>
	<g>
		<path class="st0" d="M158.4,743.9l23.6-40.8l-22-39.3h24.3l14.9,29.8h3.9l14.9-29.8h24.3l-22,39.3l23.6,40.8h-24.3l-16.5-31.4
			h-3.9l-16.5,31.4H158.4z"/>
		<path class="st0" d="M257.3,734c-8.4-8.2-12.6-18.2-12.6-30.1c0-11.8,4.2-21.9,12.6-30.1c8.4-8.2,18.8-12.3,31.4-12.3
			c12.5,0,22.9,4.1,31.3,12.3c8.4,8.2,12.6,18.2,12.6,30.1c0,11.8-4.2,21.9-12.6,30.1c-8.4,8.2-18.9,12.3-31.3,12.3
			C276.2,746.3,265.7,742.2,257.3,734z M273.7,686.9c-4.1,4.4-6.1,10.1-6.1,17s2,12.6,6.1,17c4.1,4.4,9.1,6.6,15.1,6.6
			s11-2.2,15.1-6.6c4.1-4.4,6.1-10.1,6.1-17s-2-12.6-6.1-17c-4.1-4.4-9.1-6.6-15.1-6.6S277.8,682.5,273.7,686.9z"/>
		<path class="st0" d="M340.6,743.9v-18.8l40.1-40.8v-1.6h-38.5v-18.8h67.5v18.8l-40.1,40.8v1.6h41.6v18.8H340.6z"/>
		<path class="st0" d="M417.5,682.7v-18.8h10.2v-17.3h22v17.3h22.6v18.8h-22.6v42.4h23.6v18.8h-45.5v-61.3H417.5z"/>
		<path class="st0" d="M493.6,734c-8.3-8.2-12.5-18.2-12.5-30.1c0-11.8,4.2-21.9,12.5-30.1c8.3-8.2,18.6-12.3,30.7-12.3
			c12.4,0,22.5,4.1,30.5,12.3c8,8.2,11.9,18.2,11.9,30.2v4.7h-62.8c0.8,5.2,3.2,9.7,7.1,13.3c3.9,3.7,8.3,5.5,13.4,5.5
			c5.5,0,10.3-1.6,14.3-4.7c1.6-1.4,2.8-2.9,3.8-4.7H566c-1.8,5.3-4.4,10.1-7.9,14.1c-8.4,9.4-19.6,14.1-33.8,14.1
			C512.2,746.3,502,742.2,493.6,734z M504.7,695.3h38.5c-0.8-4.2-3-7.7-6.4-10.6c-3.4-2.9-7.6-4.3-12.5-4.3c-4.9,0-9.1,1.4-12.6,4.2
			C508.3,687.4,506,691,504.7,695.3z"/>
		<path class="st0" d="M568.3,743.9l23.6-40.8l-22-39.3h24.3l14.9,29.8h3.9l14.9-29.8h24.3l-22,39.3l23.6,40.8h-24.3l-16.5-31.4
			h-3.9l-16.5,31.4H568.3z"/>
		<path class="st0" d="M663,742.7c-2.4-2.4-3.6-5.4-3.6-9c0-3.6,1.2-6.5,3.6-9c2.4-2.4,5.4-3.6,9-3.6c3.6,0,6.5,1.2,9,3.6
			c2.4,2.4,3.6,5.4,3.6,9c0,3.6-1.2,6.5-3.6,9c-2.4,2.4-5.4,3.6-9,3.6C668.4,746.3,665.4,745.1,663,742.7z"/>
		<path class="st0" d="M698.7,743.9v-80.1h22v11.8h0.8c0.9-2.5,2.4-4.7,4.2-6.6c4.3-4.5,9.7-6.8,16.2-6.8h9.4v21.2h-11.8
			c-6,0-10.6,1.6-13.9,4.8c-3.3,3.2-4.9,7.6-4.9,13.3v42.4H698.7z"/>
		<path class="st0" d="M762.3,712.5v-48.7h22v45.5c0,5.9,1.4,10.3,4.3,13.4c2.9,3.1,6.9,4.6,12.2,4.6c5.2,0,9.7-2,13.4-6
			c3.7-4,5.5-9.1,5.5-15.2v-42.4h22v80.1h-22v-11h-0.8c-1.3,2.4-3.2,4.7-5.8,6.8c-5.7,4.4-12.1,6.6-19.3,6.6
			c-9.9,0-17.7-2.9-23.2-8.6C765,731.9,762.3,723.5,762.3,712.5z"/>
	</g>
</g>
</svg>
