<svg width="36" height="36" viewBox="0 0 36 36" fill="none" xmlns="http://www.w3.org/2000/svg">
<rect width="36" height="36" rx="18" fill="#DCBF53"/>
<path d="M22.4333 19.6334C21.9634 19.1696 21.3769 19.1696 20.91 19.6334C20.5539 19.9865 20.1978 20.3396 19.8477 20.6987C19.7519 20.7975 19.6711 20.8184 19.5544 20.7526C19.324 20.6269 19.0786 20.5252 18.8572 20.3875C17.8247 19.7381 16.9599 18.9032 16.1938 17.9636C15.8137 17.4968 15.4756 16.997 15.2391 16.4344C15.1913 16.3207 15.2002 16.2459 15.293 16.1532C15.6491 15.809 15.9963 15.4559 16.3464 15.1028C16.8342 14.612 16.8342 14.0375 16.3434 13.5437C16.0651 13.2624 15.7868 12.9871 15.5085 12.7058C15.2212 12.4185 14.9369 12.1283 14.6466 11.844C14.1768 11.3861 13.5902 11.3861 13.1234 11.847C12.7643 12.2001 12.4202 12.5622 12.0551 12.9093C11.7169 13.2295 11.5463 13.6215 11.5104 14.0794C11.4536 14.8245 11.6361 15.5277 11.8935 16.213C12.4202 17.6314 13.2222 18.8913 14.1947 20.0464C15.5085 21.6084 17.0766 22.8443 18.911 23.7361C19.737 24.1371 20.5928 24.4453 21.5235 24.4962C22.1639 24.5321 22.7205 24.3705 23.1664 23.8708C23.4717 23.5296 23.8158 23.2184 24.139 22.8922C24.6178 22.4074 24.6208 21.8209 24.145 21.3421C23.5764 20.7705 23.0048 20.202 22.4333 19.6334Z" fill="white"/>
</svg>
